<?xml version="1.0" encoding="UTF-8" standalone="no"?>
<!DOCTYPE svg PUBLIC "-//W3C//DTD SVG 1.1//EN" "http://www.w3.org/Graphics/SVG/1.1/DTD/svg11.dtd">
<svg width="100%" height="100%" viewBox="0 0 512 512" version="1.1" xmlns="http://www.w3.org/2000/svg" xmlns:xlink="http://www.w3.org/1999/xlink" xml:space="preserve" xmlns:serif="http://www.serif.com/" style="fill-rule:evenodd;clip-rule:evenodd;stroke-linecap:round;stroke-linejoin:round;stroke-miterlimit:1.5;">
    <g transform="matrix(4.31972,0,0,4.31972,-303.404,-238.608)">
        <circle cx="129.5" cy="114.5" r="57.5" style="fill:none;stroke:black;stroke-width:0.32px;"/>
    </g>
    <g transform="matrix(3.54835,0,0,3.61056,-315.284,-202.109)">
        <g transform="matrix(0.217923,-0.975966,0.975966,0.217923,-34.8719,195.778)">
            <text x="104.721px" y="119.648px" style="font-family:'Raleway-Bold', 'Raleway', sans-serif;font-weight:700;font-size:13.464px;">G</text>
        </g>
        <g transform="matrix(0.35429,-0.935135,0.935135,0.35429,-35.9044,171.683)">
            <text x="106.366px" y="111.84px" style="font-family:'Raleway-Bold', 'Raleway', sans-serif;font-weight:700;font-size:13.464px;">A</text>
        </g>
        <g transform="matrix(0.469277,-0.883051,0.883051,0.469277,-34.8728,151.855)">
            <text x="108.897px" y="104.939px" style="font-family:'Raleway-Bold', 'Raleway', sans-serif;font-weight:700;font-size:13.464px;">S</text>
        </g>
        <g transform="matrix(0.573515,-0.819195,0.819195,0.573515,-33.362,133.927)">
            <text x="111.943px" y="99.004px" style="font-family:'Raleway-Bold', 'Raleway', sans-serif;font-weight:700;font-size:13.464px;">T</text>
        </g>
        <g transform="matrix(0.673829,-0.738888,0.738888,0.673829,-31.6198,115.842)">
            <text x="115.401px" y="93.736px" style="font-family:'Raleway-Bold', 'Raleway', sans-serif;font-weight:700;font-size:13.464px;">O</text>
        </g>
        <g transform="matrix(0.765766,-0.64312,0.64312,0.765766,-27.8413,98.3673)">
            <text x="121.119px" y="87.404px" style="font-family:'Raleway-Bold', 'Raleway', sans-serif;font-weight:700;font-size:13.464px;">S</text>
        </g>
        <g transform="matrix(0.869075,-0.49468,0.49468,0.869075,-23.494,74.1025)">
            <text x="128.246px" y="81.436px" style="font-family:'Raleway-Bold', 'Raleway', sans-serif;font-weight:700;font-size:13.464px;">D</text>
        </g>
        <g transform="matrix(0.925098,-0.379729,0.379729,0.925098,-19.2547,57.1364)">
            <text x="135.204px" y="77.375px" style="font-family:'Raleway-Bold', 'Raleway', sans-serif;font-weight:700;font-size:13.464px;">E</text>
        </g>
        <g transform="matrix(0.974797,-0.223094,0.223094,0.974797,-12.8547,33.9631)">
            <text x="143.891px" y="73.876px" style="font-family:'Raleway-Bold', 'Raleway', sans-serif;font-weight:700;font-size:13.464px;">E</text>
        </g>
        <g transform="matrix(0.995267,-0.0971812,0.0971812,0.995267,-6.30929,14.9394)">
            <text x="150.209px" y="72.239px" style="font-family:'Raleway-Bold', 'Raleway', sans-serif;font-weight:700;font-size:13.464px;">N</text>
        </g>
        <g transform="matrix(0.999241,0.0389611,-0.0389611,0.999241,2.89969,-6.1307)">
            <text x="158.744px" y="71.331px" style="font-family:'Raleway-Bold', 'Raleway', sans-serif;font-weight:700;font-size:13.464px;">V</text>
        </g>
        <g transform="matrix(0.990694,0.136109,-0.136109,0.990694,11.3081,-22.0127)">
            <text x="166.63px" y="71.688px" style="font-family:'Raleway-Bold', 'Raleway', sans-serif;font-weight:700;font-size:13.464px;">Í</text>
        </g>
        <g transform="matrix(0.973229,0.229838,-0.229838,0.973229,21.0437,-36.9978)">
            <text x="169.34px" y="71.834px" style="font-family:'Raleway-Bold', 'Raleway', sans-serif;font-weight:700;font-size:13.464px;">O</text>
        </g>
        <g transform="matrix(0.912113,0.409939,-0.409939,0.912113,46.375,-67.2986)">
            <text x="180.141px" y="74.506px" style="font-family:'Raleway-Bold', 'Raleway', sans-serif;font-weight:700;font-size:13.464px;">G</text>
        </g>
        <g transform="matrix(0.845222,0.534415,-0.534415,0.845222,70.529,-88.17)">
            <text x="187.481px" y="77.676px" style="font-family:'Raleway-Bold', 'Raleway', sans-serif;font-weight:700;font-size:13.464px;">R</text>
        </g>
        <g transform="matrix(0.773596,0.633679,-0.633679,0.773596,95.485,-104.312)">
            <text x="193.722px" y="81.47px" style="font-family:'Raleway-Bold', 'Raleway', sans-serif;font-weight:700;font-size:13.464px;">A</text>
        </g>
        <g transform="matrix(0.697699,0.716391,-0.716391,0.697699,121.517,-116.669)">
            <text x="199px" y="85.65px" style="font-family:'Raleway-Bold', 'Raleway', sans-serif;font-weight:700;font-size:13.464px;">T</text>
        </g>
        <g transform="matrix(0.595816,0.803121,-0.803121,0.595816,154.882,-127.153)">
            <text x="203.768px" y="90.3px" style="font-family:'Raleway-Bold', 'Raleway', sans-serif;font-weight:700;font-size:13.464px;">U</text>
        </g>
        <g transform="matrix(0.509873,0.86025,-0.86025,0.509873,186.252,-131.99)">
            <text x="208.957px" y="97.456px" style="font-family:'Raleway-Bold', 'Raleway', sans-serif;font-weight:700;font-size:13.464px;">I</text>
        </g>
        <g transform="matrix(0.429483,0.903075,-0.903075,0.429483,210.178,-133.183)">
            <text x="210.497px" y="99.755px" style="font-family:'Raleway-Bold', 'Raleway', sans-serif;font-weight:700;font-size:13.464px;">T</text>
        </g>
        <g transform="matrix(0.307046,0.951695,-0.951695,0.307046,248.084,-130.075)">
            <text x="213.363px" y="105.32px" style="font-family:'Raleway-Bold', 'Raleway', sans-serif;font-weight:700;font-size:13.464px;">O</text>
        </g>
    </g>
    <g transform="matrix(3.54835,0,0,3.61056,-315.284,-201.796)">
        <g transform="matrix(0.111236,0.993794,-0.993794,0.111236,213.86,23.5138)">
            <text x="93.784px" y="131.323px" style="font-family:'Raleway-Bold', 'Raleway', sans-serif;font-weight:700;font-size:13.464px;">+</text>
        </g>
        <g transform="matrix(0.226437,0.974026,-0.974026,0.226437,208.528,15.1305)">
            <text x="94.738px" y="138.849px" style="font-family:'Raleway-Bold', 'Raleway', sans-serif;font-weight:700;font-size:13.464px;">+</text>
        </g>
        <g transform="matrix(0.338549,0.940949,-0.940949,0.338549,201.436,5.84355)">
            <text x="96.562px" y="146.199px" style="font-family:'Raleway-Bold', 'Raleway', sans-serif;font-weight:700;font-size:13.464px;">+</text>
        </g>
        <g transform="matrix(0.658798,0.75232,-0.75232,0.658798,162.047,-23.7394)">
            <text x="107.195px" y="166.78px" style="font-family:'Raleway-Bold', 'Raleway', sans-serif;font-weight:700;font-size:13.464px;">F</text>
        </g>
        <g transform="matrix(0.764809,0.644258,-0.644258,0.764809,138.761,-32.2244)">
            <text x="113.517px" y="173.941px" style="font-family:'Raleway-Bold', 'Raleway', sans-serif;font-weight:700;font-size:13.464px;">R</text>
        </g>
        <g transform="matrix(0.853304,0.521413,-0.521413,0.853304,112.147,-37.0121)">
            <text x="121.851px" y="180.801px" style="font-family:'Raleway-Bold', 'Raleway', sans-serif;font-weight:700;font-size:13.464px;">E</text>
        </g>
        <g transform="matrix(0.920285,0.391249,-0.391249,0.920285,83.1202,-36.1837)">
            <text x="130.356px" y="185.889px" style="font-family:'Raleway-Bold', 'Raleway', sans-serif;font-weight:700;font-size:13.464px;">E</text>
        </g>
        <g transform="matrix(0.983658,0.180046,-0.180046,0.983658,36.7753,-22.9131)">
            <text x="144.61px" y="191.129px" style="font-family:'Raleway-Bold', 'Raleway', sans-serif;font-weight:700;font-size:13.464px;">S</text>
        </g>
        <g transform="matrix(0.999778,0.0210466,-0.0210466,0.999778,4.09329,-3.20937)">
            <text x="154.518px" y="192.86px" style="font-family:'Raleway-Bold', 'Raleway', sans-serif;font-weight:700;font-size:13.464px;">H</text>
        </g>
        <g transform="matrix(0.994359,-0.106069,0.106069,0.994359,-19.511,18.7398)">
            <text x="166.421px" y="192.797px" style="font-family:'Raleway-Bold', 'Raleway', sans-serif;font-weight:700;font-size:13.464px;">I</text>
        </g>
        <g transform="matrix(0.973931,-0.226843,0.226843,0.973931,-39.1194,44.0586)">
            <text x="172.134px" y="192.233px" style="font-family:'Raleway-Bold', 'Raleway', sans-serif;font-weight:700;font-size:13.464px;">P</text>
        </g>
        <g transform="matrix(0.928652,-0.370952,0.370952,0.928652,-57.4258,81.0875)">
            <text x="182.082px" y="189.828px" style="font-family:'Raleway-Bold', 'Raleway', sans-serif;font-weight:700;font-size:13.464px;">P</text>
        </g>
        <g transform="matrix(0.880509,-0.474029,0.474029,0.880509,-65.1852,113.011)">
            <text x="191.569px" y="185.803px" style="font-family:'Raleway-Bold', 'Raleway', sans-serif;font-weight:700;font-size:13.464px;">I</text>
        </g>
        <g transform="matrix(0.810566,-0.585648,0.585648,0.810566,-70.0225,149.863)">
            <text x="196.644px" y="183.171px" style="font-family:'Raleway-Bold', 'Raleway', sans-serif;font-weight:700;font-size:13.464px;">N</text>
        </g>
        <g transform="matrix(0.697165,-0.716911,0.716911,0.697165,-63.6686,201.194)">
            <text x="206.312px" y="175.959px" style="font-family:'Raleway-Bold', 'Raleway', sans-serif;font-weight:700;font-size:13.464px;">G</text>
        </g>
        <g transform="matrix(0.378544,-0.925583,0.925583,0.378544,-4.40241,301.615)">
            <text x="222.408px" y="154.086px" style="font-family:'Raleway-Bold', 'Raleway', sans-serif;font-weight:700;font-size:13.464px;">+</text>
        </g>
        <g transform="matrix(0.268224,-0.963357,0.963357,0.268224,23.1198,324.521)">
            <text x="225.17px" y="147.042px" style="font-family:'Raleway-Bold', 'Raleway', sans-serif;font-weight:700;font-size:13.464px;">+</text>
        </g>
        <g transform="matrix(0.153714,-0.988115,0.988115,0.153714,54.1476,342.624)">
            <text x="227.096px" y="139.701px" style="font-family:'Raleway-Bold', 'Raleway', sans-serif;font-weight:700;font-size:13.464px;">+</text>
        </g>
    </g>
    <g id="_1293790" serif:id="1293790" transform="matrix(-0.266751,-0.0871394,-0.0871394,0.266751,241.821,270.867)">
        <g transform="matrix(1,0,0,1,-640,-421.5)">
            <g transform="matrix(0.1,0,0,-0.1,0,843)">
                <path d="M255,8423C150,8408 66,8361 29,8297C8,8260 5,8244 6,8155C7,8069 11,8044 39,7970C80,7860 176,7685 295,7503C432,7294 497,7213 650,7056C991,6706 1389,6398 2319,5762C2481,5651 2668,5519 2734,5468C2881,5355 3053,5185 3100,5105L3135,5046L3134,4900C3134,4766 3131,4744 3097,4615C3076,4538 3023,4366 2978,4233L2896,3991L2840,4022C2746,4074 2652,4139 2593,4193C2531,4250 2465,4344 2455,4390C2449,4416 2444,4420 2402,4424C2376,4427 2297,4439 2225,4450C2047,4478 1960,4477 1893,4445C1794,4399 1688,4259 1653,4129C1630,4039 1644,3976 1711,3876C1825,3706 2145,3457 2440,3310C2573,3244 2620,3201 2620,3147C2620,3093 2579,2916 2514,2687C2420,2356 1970,707 1970,692C1970,687 1992,680 2019,677C2080,670 2173,628 2277,562C2395,486 2443,467 2506,472C2543,475 2572,485 2601,506C2657,544 2761,670 2909,878C3071,1104 3114,1146 3275,1235C3453,1333 3516,1390 3696,1620C3871,1844 3944,1909 4099,1980C4107,1983 4121,2009 4131,2037C4151,2098 4169,2126 4232,2204C4306,2294 4326,2336 4353,2456C4402,2675 4462,2728 4606,2681C4658,2664 4695,2660 4800,2660C4897,2660 4930,2663 4930,2673C4930,2679 4923,2710 4915,2740C4903,2784 4903,2797 4913,2803C4966,2837 5421,3091 5484,3121C5610,3182 5613,3182 6030,3012C6339,2887 6417,2842 6710,2625C6985,2421 7274,2241 7585,2079C7668,2036 7929,1913 8165,1805C8486,1659 8604,1600 8629,1575C8689,1516 8687,1490 8576,990C8522,751 8466,503 8450,440C8401,253 8413,171 8501,97C8614,0 8743,-23 8849,35C8879,52 8942,99 8989,140C9420,518 9868,901 9924,941C10009,1001 10032,1003 10203,959C10300,934 10346,927 10425,927C10510,927 10630,946 10646,963C10648,965 10613,1056 10567,1166C10521,1275 10486,1368 10489,1372C10492,1375 10756,1483 11075,1610C11985,1974 12295,2106 12355,2155C12423,2210 12469,2231 12623,2278C12693,2300 12754,2320 12757,2324C12766,2333 12693,2417 12637,2462C12485,2582 12357,2600 12030,2550C11886,2528 10640,2387 10634,2392C10633,2394 10688,2501 10757,2630C11001,3086 10998,3081 10961,3164C10926,3243 10797,3355 10660,3425C10617,3447 10588,3454 10525,3458C10455,3461 10430,3457 10330,3427C10175,3380 9409,3134 9238,3076C9088,3025 8987,3009 8928,3029C8876,3046 8694,3169 8345,3421C8174,3544 7856,3773 7637,3930C7331,4149 7240,4219 7240,4235C7240,4252 7265,4268 7371,4320C7499,4383 7505,4384 7597,4388C7678,4392 7690,4395 7686,4409C7678,4435 7661,4514 7660,4525C7660,4531 7705,4558 7760,4585C7815,4612 7860,4637 7860,4641C7860,4645 7833,4681 7801,4721L7742,4795L7799,4800C7845,4804 7864,4812 7900,4841C7925,4861 7968,4891 7995,4908C8083,4960 8126,4968 8355,4973C8593,4978 8640,4988 8803,5063C8895,5105 8895,5105 9020,5106L9144,5107L9161,5147C9194,5226 9225,5242 9737,5448C10000,5554 10232,5643 10251,5646C10282,5651 10327,5643 10427,5614L10449,5608L10430,5681C10419,5721 10412,5755 10413,5756C10414,5757 10550,5810 10714,5874C10879,5938 11016,5993 11018,5995C11021,5997 11016,6028 11007,6062C10998,6097 10994,6128 10998,6131C11002,6134 11127,6180 11275,6233C11478,6305 12443,6650 12757,6763C12775,6770 12790,6779 12790,6783C12793,6800 12668,6941 12612,6985C12492,7080 12368,7118 12211,7107C12122,7100 12104,7097 11500,6981C11119,6908 10412,6778 8375,6405C7553,6254 6592,6098 6532,6104C6457,6113 6417,6136 6299,6240C6057,6454 5745,6656 5581,6704C5467,6738 5376,6713 5280,6624C5127,6481 5067,6264 5139,6115C5155,6082 5187,6033 5209,6005C5236,5971 5245,5953 5237,5949C5230,5945 5181,5937 5127,5932C4973,5915 4900,5935 4755,6033C4675,6088 3976,6593 3409,7005C3158,7188 2884,7384 2799,7440C2714,7497 2571,7598 2480,7665C1852,8127 1414,8350 1015,8409C944,8419 311,8431 255,8423Z" style="fill-rule:nonzero;"/>
            </g>
        </g>
    </g>
</svg>
